<?xml version="1.0" standalone="no"?>
<!DOCTYPE svg PUBLIC "-//W3C//DTD SVG 20010904//EN"
 "http://www.w3.org/TR/2001/REC-SVG-20010904/DTD/svg10.dtd">
<svg version="1.0" xmlns="http://www.w3.org/2000/svg"
 width="364.000000pt" height="364.000000pt" viewBox="0 0 364.000000 364.000000"
 preserveAspectRatio="xMidYMid meet">
<metadata>
Created by potrace 1.14, written by Peter Selinger 2001-2017
</metadata>
<g transform="translate(0.000000,364.000000) scale(0.100000,-0.100000)"
fill="#000000" stroke="none">
<path d="M2617 2738 c-21 -23 -91 -98 -155 -166 -64 -69 -178 -191 -253 -271
-155 -166 -151 -145 -51 -235 l55 -48 56 61 56 61 65 -60 65 -60 46 47 c81 85
71 84 145 12 l66 -63 40 45 c22 24 64 69 92 99 29 30 135 145 236 255 102 110
193 208 203 217 10 9 16 22 12 27 -9 16 -115 115 -127 120 -5 2 -35 -25 -66
-58 l-57 -62 -65 60 c-36 33 -68 61 -72 61 -3 0 -31 -26 -61 -57 l-55 -58 -60
58 c-33 31 -64 57 -69 57 -5 0 -26 -19 -46 -42z"/>
<path d="M1338 1759 c-25 -14 -23 -61 3 -77 17 -11 25 -11 45 3 29 18 31 46 6
68 -21 19 -30 20 -54 6z"/>
<path d="M1139 1696 c-1 -12 -1 -29 0 -38 2 -14 -5 -18 -32 -18 -26 0 -36 -5
-40 -19 -7 -27 4 -37 38 -36 l30 2 1 -130 c0 -127 1 -130 26 -152 25 -21 52
-25 124 -16 12 1 26 61 15 61 -3 -1 -25 -5 -49 -9 -55 -11 -58 -5 -57 137 1
120 -9 107 83 111 29 1 33 4 30 24 -3 19 -10 23 -58 27 -55 5 -55 5 -54 38 0
17 -2 32 -5 33 -45 6 -51 5 -52 -15z"/>
<path d="M2776 1665 c3 -33 1 -35 -29 -36 -18 -1 -35 -1 -39 0 -5 0 -8 -6 -8
-14 0 -14 24 -20 58 -16 15 2 14 12 16 -141 1 -100 5 -131 17 -143 31 -31 119
-30 119 1 0 12 -8 15 -35 11 -56 -8 -62 6 -64 142 -1 90 2 121 12 123 16 1 49
5 65 7 6 0 12 8 12 16 0 11 -12 15 -45 15 -45 0 -45 0 -45 35 0 28 -4 35 -19
35 -16 0 -18 -6 -15 -35z"/>
<path d="M847 1636 c-45 -13 -95 -58 -113 -102 -17 -41 -11 -124 12 -163 26
-44 81 -79 136 -86 127 -17 231 110 193 235 -28 91 -132 144 -228 116z m108
-62 c38 -18 65 -66 65 -114 0 -86 -83 -145 -161 -113 -92 37 -102 171 -17 223
40 24 69 25 113 4z"/>
<path d="M271 1624 c-20 -8 -38 -11 -43 -6 -5 5 -19 7 -31 5 -23 -4 -23 -5
-19 -166 2 -89 7 -165 11 -169 3 -4 16 -5 28 -2 20 6 21 11 20 124 -1 123 4
139 46 161 35 19 64 19 88 0 23 -18 24 -27 27 -150 3 -91 7 -131 15 -132 7 -1
19 -2 27 -3 12 -1 16 21 20 128 5 123 6 130 30 147 41 29 73 33 101 11 23 -19
24 -26 27 -154 3 -131 4 -134 25 -132 12 1 26 3 30 3 14 1 3 262 -12 292 -30
62 -121 78 -187 33 -32 -22 -39 -24 -48 -12 -29 39 -95 48 -155 22z"/>
<path d="M1332 1464 l-1 -174 30 0 29 0 0 174 0 175 -29 -1 -29 -1 0 -173z"/>
<path d="M1420 1631 c0 -5 13 -38 29 -73 16 -35 50 -112 76 -171 66 -149 68
-148 159 73 66 158 71 175 54 178 -11 2 -25 2 -31 -1 -7 -3 -34 -59 -61 -125
-27 -67 -52 -119 -56 -117 -4 2 -30 58 -59 125 -50 114 -55 120 -82 120 -16 0
-29 -4 -29 -9z"/>
<path d="M1895 1633 c-91 -17 -146 -80 -146 -166 0 -89 41 -145 122 -167 64
-17 144 4 133 35 -4 10 -12 11 -31 4 -42 -16 -95 -10 -130 14 -81 55 -71 183
19 232 31 17 43 18 86 9 46 -9 50 -9 49 8 -1 10 -8 20 -17 23 -28 8 -65 12
-85 8z"/>
<path d="M3051 1629 c-18 -4 -50 -23 -70 -43 -35 -36 -36 -38 -36 -115 0 -86
12 -113 69 -155 51 -39 194 -18 213 30 9 25 -3 26 -43 5 -45 -25 -103 -27
-143 -6 -31 15 -61 69 -61 107 0 23 0 23 125 23 l125 0 0 28 c0 32 -20 75 -47
99 -25 23 -90 36 -132 27z m95 -47 c24 -19 48 -61 40 -69 -4 -5 -74 -6 -168
-4 -31 1 -35 4 -31 21 15 58 113 90 159 52z"/>
<path d="M3405 1627 c-17 -5 -40 -19 -52 -30 l-23 -20 0 27 c0 21 -4 27 -17
24 -16 -3 -18 -19 -18 -166 -1 -149 0 -162 17 -162 16 0 18 11 18 103 0 115
15 153 70 182 29 15 34 15 55 1 22 -15 24 -14 30 4 3 11 4 24 1 29 -9 14 -49
18 -81 8z"/>
<path d="M2130 1623 c-20 -7 -60 -44 -72 -66 -19 -37 -21 -116 -3 -163 25 -66
73 -99 144 -98 67 0 131 27 131 55 0 23 3 23 -45 -1 -80 -41 -160 -17 -191 56
-29 69 -27 69 104 69 64 -1 122 0 128 2 29 10 -21 123 -63 142 -25 11 -106 14
-133 4z m131 -54 c28 -30 38 -58 22 -60 -5 0 -50 -1 -101 -2 -83 -2 -92 0 -92
16 0 10 13 32 29 48 42 42 102 41 142 -2z"/>
<path d="M2498 1616 c-16 -9 -42 -13 -60 -9 l-33 5 3 -154 c4 -143 10 -176 33
-162 4 2 7 57 8 121 0 114 0 117 28 144 51 51 122 44 143 -14 5 -16 10 -78 10
-137 0 -83 3 -109 14 -113 8 -3 17 -3 20 0 3 4 6 61 6 127 0 103 -3 126 -20
154 -31 51 -96 67 -152 38z"/>
<path d="M189 1107 c0 -1 -2 -19 -4 -39 -3 -38 10 -52 21 -23 4 8 12 15 20 15
14 0 20 39 7 41 -5 0 -16 2 -25 4 -10 2 -18 3 -19 2z m31 -27 c0 -5 -4 -10
-10 -10 -5 0 -10 5 -10 10 0 6 5 10 10 10 6 0 10 -4 10 -10z"/>
<path d="M310 1070 c0 -22 5 -40 11 -40 5 0 8 4 4 9 -3 5 -1 12 5 16 5 3 10
-1 10 -9 0 -9 4 -16 9 -16 13 0 11 63 -3 72 -25 17 -36 7 -36 -32z m30 10 c0
-5 -2 -10 -4 -10 -3 0 -8 5 -11 10 -3 6 -1 10 4 10 6 0 11 -4 11 -10z"/>
<path d="M448 1099 c-24 -13 -23 -56 1 -69 36 -19 69 38 39 68 -14 14 -18 14
-40 1z m32 -35 c0 -31 -23 -28 -28 4 -2 15 2 22 12 22 11 0 16 -9 16 -26z"/>
<path d="M576 1103 c-10 -11 -6 -73 5 -73 5 0 8 4 5 9 -3 4 6 13 20 20 14 6
24 16 22 23 -5 13 -44 29 -52 21z m34 -23 c0 -5 -4 -10 -10 -10 -5 0 -10 5
-10 10 0 6 5 10 10 10 6 0 10 -4 10 -10z"/>
<path d="M696 1102 c-9 -8 -7 -70 2 -75 4 -3 16 -1 27 4 17 6 17 8 3 8 -22 1
-24 21 -2 21 8 0 12 5 9 10 -4 6 -11 8 -16 5 -5 -4 -9 -1 -9 4 0 6 8 11 17 11
9 0 13 3 9 7 -9 9 -33 12 -40 5z"/>
<path d="M810 1074 c0 -44 15 -60 41 -43 11 7 11 9 -3 9 -12 0 -18 8 -18 23 0
12 -5 29 -10 37 -7 11 -10 4 -10 -26z"/>
<path d="M928 1104 c-5 -4 -8 -22 -8 -40 0 -23 5 -33 20 -37 11 -3 23 -1 26 4
3 5 -2 9 -10 9 -10 0 -16 12 -18 36 -2 20 -6 32 -10 28z"/>
<path d="M1260 1096 c-20 -26 -8 -61 23 -64 22 -3 27 1 27 17 0 12 -4 21 -10
21 -5 0 -7 -7 -3 -16 4 -12 1 -15 -13 -12 -26 5 -30 36 -7 53 10 8 13 15 7 15
-6 0 -17 -7 -24 -14z"/>
<path d="M1450 1103 c0 -5 6 -18 14 -29 15 -19 15 -19 30 1 8 11 12 22 10 24
-2 3 -11 -4 -19 -15 -13 -17 -14 -17 -15 -2 0 17 -20 37 -20 21z"/>
<path d="M1582 1098 c-17 -17 -15 -58 4 -65 37 -14 66 34 37 62 -18 18 -25 19
-41 3z m37 -20 c11 -28 6 -38 -20 -38 -13 0 -19 7 -19 23 0 42 25 51 39 15z"/>
<path d="M1706 1077 c2 -48 2 -49 27 -45 17 2 22 10 23 33 1 30 1 30 -3 2 -6
-37 -37 -33 -38 5 0 14 -3 29 -6 32 -3 3 -4 -9 -3 -27z"/>
<path d="M1913 1095 c8 -6 12 -20 11 -32 -2 -12 0 -24 5 -27 4 -3 7 5 6 17 0
12 2 29 7 38 6 14 3 17 -17 15 -20 -1 -22 -3 -12 -11z"/>
<path d="M2034 1102 c-30 -20 -18 -72 16 -72 10 0 23 7 28 16 11 19 4 54 -10
54 -5 0 -5 -7 0 -17 13 -24 4 -43 -19 -43 -22 0 -27 38 -7 58 13 13 9 16 -8 4z"/>
<path d="M2234 1095 c5 -11 11 -30 13 -42 7 -33 16 -28 29 13 10 30 9 34 -4
29 -8 -3 -22 0 -30 7 -14 11 -15 10 -8 -7z"/>
<path d="M2368 1099 c-23 -13 -23 -55 -1 -68 38 -21 73 35 41 67 -14 14 -18
14 -40 1z m35 -22 c7 -19 -8 -41 -22 -33 -16 10 -14 46 3 46 8 0 16 -6 19 -13z"/>
<path d="M2490 1077 c0 -19 6 -40 13 -46 28 -23 68 36 46 70 -7 11 -9 9 -10
-8 -3 -42 -4 -46 -16 -50 -9 -3 -13 6 -13 26 0 16 -4 33 -10 36 -6 4 -10 -8
-10 -28z"/>
<path d="M2634 1101 c-12 -8 -15 -71 -3 -71 5 0 9 8 9 18 1 16 1 16 14 0 19
-26 24 -22 24 16 0 34 -23 53 -44 37z m26 -21 c0 -5 -4 -10 -10 -10 -5 0 -10
5 -10 10 0 6 5 10 10 10 6 0 10 -4 10 -10z"/>
<path d="M2825 1100 c-3 -6 3 -10 15 -10 l21 0 -20 -26 c-25 -32 -20 -43 16
-36 20 4 23 7 10 10 -17 3 -17 5 -2 29 9 13 14 27 11 31 -11 11 -45 12 -51 2z"/>
<path d="M2950 1071 c0 -30 4 -40 20 -44 11 -3 23 -1 26 4 3 5 -2 9 -10 9 -9
0 -16 5 -16 10 0 6 7 10 16 10 8 0 12 5 9 10 -4 6 -11 8 -16 5 -5 -4 -9 -1 -9
4 0 6 8 11 17 11 21 0 8 13 -17 17 -17 2 -20 -3 -20 -36z"/>
<path d="M3068 1099 c-3 -8 -4 -25 -2 -39 1 -14 3 -29 3 -35 1 -5 5 -4 10 4 5
7 7 23 4 35 -4 17 -1 16 14 -6 24 -37 33 -35 33 7 0 19 -4 35 -10 35 -5 0 -10
-7 -10 -16 0 -13 -4 -11 -18 6 -14 18 -20 20 -24 9z"/>
<path d="M3200 1071 c0 -23 5 -41 10 -41 6 0 10 15 10 34 0 19 -4 38 -10 41
-6 4 -10 -10 -10 -34z"/>
<path d="M3292 1101 c-11 -7 -11 -9 1 -14 9 -3 13 -16 12 -32 -2 -16 1 -25 8
-22 7 2 11 16 9 30 -3 20 1 27 14 27 10 0 14 3 10 7 -10 11 -40 13 -54 4z"/>
<path d="M3459 1103 c-1 -5 -1 -11 0 -15 1 -7 -8 -10 -26 -7 -5 1 -7 5 -5 10
1 5 -4 9 -10 9 -17 0 -15 -63 1 -68 6 -2 10 2 9 8 -2 7 3 15 10 17 6 3 12 -2
12 -11 0 -9 5 -16 10 -16 6 0 10 18 10 40 0 22 -2 40 -5 40 -3 0 -6 -3 -6 -7z"/>
<path d="M1038 1070 c-3 -17 -1 -33 4 -36 4 -3 8 11 8 30 0 44 -6 47 -12 6z"/>
<path d="M1121 1063 l2 -38 6 35 6 35 14 -32 c18 -44 31 -42 30 5 -1 35 -2 36
-8 8 l-6 -30 -12 27 c-18 39 -33 33 -32 -10z"/>
<path d="M1470 1039 c0 -5 5 -7 10 -4 6 3 10 8 10 11 0 2 -4 4 -10 4 -5 0 -10
-5 -10 -11z"/>
</g>
</svg>
